<?xml version="1.0" standalone="no"?>
<!DOCTYPE svg PUBLIC "-//W3C//DTD SVG 20010904//EN"
 "http://www.w3.org/TR/2001/REC-SVG-20010904/DTD/svg10.dtd">
<svg version="1.0" xmlns="http://www.w3.org/2000/svg"
 width="86.000000pt" height="86.000000pt" viewBox="0 0 86.000000 86.000000"
 preserveAspectRatio="xMidYMid meet">
<metadata>
Created by potrace 1.11, written by Peter Selinger 2001-2013
</metadata>
<g transform="translate(0.000000,86.000000) scale(0.100000,-0.100000)"
fill="#000000" stroke="none">
<path d="M321 846 c-5 -6 -12 -21 -15 -33 -8 -25 -14 -27 -36 -13 -10 6 -21 3
-37 -12 -12 -11 -28 -18 -35 -16 -17 6 -47 -39 -41 -61 3 -12 -6 -21 -29 -31
-18 -8 -37 -25 -43 -37 -5 -13 -15 -23 -22 -23 -20 0 -15 -31 9 -57 22 -23 21
-33 -4 -37 -49 -9 -71 -27 -48 -41 5 -3 7 -19 4 -35 -5 -20 0 -37 13 -56 20
-27 20 -27 1 -46 -21 -21 -16 -57 8 -71 8 -4 14 -19 14 -32 0 -14 5 -26 10
-26 6 -1 16 -2 23 -3 8 -1 11 -15 9 -43 -3 -39 -1 -43 23 -49 15 -4 38 -1 51
5 34 15 36 14 29 -8 -5 -17 -1 -29 22 -70 1 -2 18 8 38 23 32 25 35 26 35 7 0
-11 8 -27 17 -37 16 -15 18 -15 39 9 l22 26 7 -27 c11 -45 22 -52 55 -35 17 8
30 19 30 24 0 6 5 7 11 4 6 -4 17 2 26 14 l14 21 18 -21 c19 -23 41 -19 41 8
0 10 6 14 20 10 11 -3 26 0 33 6 6 7 19 12 27 12 11 0 14 8 12 28 -3 26 -2 28
18 17 32 -17 49 -6 44 29 -4 26 -3 29 17 24 19 -5 21 -3 17 21 -3 14 0 30 6
34 21 14 47 72 41 92 -4 12 -2 20 6 20 8 0 8 4 -2 16 -11 14 -11 18 4 29 22
16 22 31 0 40 -16 5 -15 8 7 25 21 16 23 21 12 32 -7 7 -17 14 -22 14 -6 1
-15 2 -22 3 -7 1 -5 8 5 19 14 16 15 23 4 45 -6 15 -20 30 -30 33 -12 4 -16
12 -12 25 9 29 -2 39 -34 29 -26 -7 -27 -6 -23 16 2 14 0 24 -7 24 -6 0 -11 6
-11 13 0 17 -23 67 -31 67 -4 0 -18 -9 -32 -20 -32 -26 -33 -26 -40 10 -7 33
-23 38 -53 15 -21 -16 -38 -20 -30 -6 8 13 -11 61 -25 61 -6 0 -23 -13 -39
-28 l-28 -28 -16 27 c-17 29 -60 43 -75 25z"/>
</g>
</svg>
